# xmcd CD database file
# Copyright (C) 1996 Ti Kan
#
# Track frame offsets:
#  150
#  18885
#  34467
#  51900
#  67335
#  86957
#  104310
#  118215
#  134707
#  161875
#  180545
#
# Disc length: 2619 seconds
#
# Revision: 1
# Processed by: cddbd v1.4b41PL1 Copyright (c) Steve Scherf et al.
# Submitted via: CDWizzard Release:4.12
#
DISCID=a90a390b
DTITLE=Unknown - Romantic Saxophone
DYEAR=1900
DGENRE=
TTITLE0=Tell it Like it is
TTITLE1=You Don't Bring Me Flowers
TTITLE2=September Morn
TTITLE3=Sea of Love
TTITLE4=Careless Whispers
TTITLE5=Je t'aime moi non plus
TTITLE6=You are So Beautiful
TTITLE7=Georgia
TTITLE8=Endless Love
TTITLE9=Say You Say Me
TTITLE10=The Way We Were
EXTD=
EXTT0=
EXTT1=
EXTT2=
EXTT3=
EXTT4=
EXTT5=
EXTT6=
EXTT7=
EXTT8=
EXTT9=
EXTT10=
PLAYORDER=
